Patient4_TMGait_0pt7_01_left_23_EMG.mot
version=1
nRows=20
nColumns=33
inDegrees=no
endheader
time	1LAddLong	2LGlutMax	3LGlutMed	4LIliopsoas	5LSemiMemb	6LBicFemLong	7LRecFem	8LVastMed	9LVastLat	10LGasMed	11LTibAnt	12lTibPost	13LPeroneusLong	14LSol	15LExtDigLong	16LFlexDigLong	17RAddLong	18RGlutMax	19RGlutMed	20RIliopsoas	21RSemiMemb	22RBicFemLong	23RRecFem	24RVastMed	25RVastLat	26RGasMed	27RTibAnt	28RTibPost	29RPeroneusLong	30RSol	31RExtDigLong	32RFlexDigLong
26.46	0.008392	0.37857	-0.032806	0.005646	0.004272	-0.00946	0.09613	0.000305	0.27832	-0.057831	-0.10727	-0.005646	0.045166	0.12833	-0.057678	0.57205	-0.020752	-0.31265	-0.34439	0.022583	0.035706	-0.022125	0.023193	0.081635	-0.025177	-0.007324	0.29862	-0.009155	0.18845	-0.18951	-0.001526	-0.013123
26.461	0.011749	0.42862	-0.024261	0.012817	-0.008392	0.023804	0.076599	0.005341	0.25818	-0.040894	-0.04364	-0.00412	0.072479	0.15945	-0.023804	-0.2504	0.002136	-0.28336	-0.27069	-0.003815	-0.015869	-0.067444	0.12848	0.10223	-0.088196	-0.00885	0.59235	0	0.27283	-0.19241	0.000153	-0.011902
26.462	0.010071	0.45837	-0.028534	0.021973	-0.019531	0.030365	0.067596	0.001526	0.25803	-0.040588	-0.026245	0	0.13077	0.094604	-0.039063	0.009155	-0.00473	-0.26291	-0.08606	-0.14343	-0.020599	-0.056763	-0.051575	0.1416	-0.08255	-0.019379	0.20828	0.036774	0.21316	-0.18662	-0.003357	-0.011902
26.463	0.003815	0.51392	-0.067291	0.032654	-0.042114	-0.023651	0.05722	-0.004578	0.25314	-0.052338	-0.052338	-0.002899	0.089264	0.04837	-0.024567	0.1265	-0.007629	-0.2536	-0.10101	-0.10651	-0.012817	-0.079651	-0.17868	0.16342	0.040588	-0.013123	-0.18265	0.02594	-0.14603	-0.15869	-0.003357	-0.011139
26.464	0.009613	0.52094	-0.069275	0.03006	-0.084229	-0.067596	0.075073	0.002747	0.24994	-0.065002	-0.10696	0.002441	0.066681	0.001678	0.17654	0.029602	0.004425	-0.30624	-0.12039	-0.073853	-0.009918	-0.086975	-0.050049	0.087433	0.1297	0.007629	-0.466	-0.005341	-0.41672	-0.21606	-0.001984	0.000153
26.465	0.015411	0.50003	-0.053101	0.004272	-0.046539	-0.075073	0.06546	-0.002136	0.25055	-0.029907	-0.085602	-0.003204	0.047607	0.042725	0.40161	0.013885	0.013428	-0.33722	0.021515	-0.024872	-0.006866	-0.10986	-0.016937	0.048676	0.2214	0.027161	-0.55344	-0.010376	-0.39322	-0.25818	-0.00351	0.003662
26.466	0.011139	0.46555	-0.026093	0.002289	0.005341	-0.088654	0.072937	0.000305	0.24292	0.005646	0.14069	-0.003815	0.04715	0.091248	0.29358	0.007477	0.021362	-0.33844	-0.080566	-0.021057	-0.002441	-0.11795	-0.021362	0.026093	0.14999	0.004425	-0.07019	-0.007172	-0.4364	-0.2356	-0.006256	0.009308
26.467	0.010834	0.46951	-0.036621	0.018463	0.0177	-0.082397	0.063629	-0.00061	0.24506	0.016785	0.38864	0.001068	0.046082	0.10422	0.27603	-0.006256	0.019684	-0.31723	0.095062	-0.037079	-0.038605	-0.09201	-0.034943	-0.009155	0.10513	-0.018616	-0.42206	-0.010834	0.55176	-0.061646	-0.001678	-0.004425
26.468	0.013885	0.47012	-0.055695	0.018921	0.008087	-0.079803	0.063171	-0.002747	0.242	0.018768	0.36514	0.002747	0.037689	0.071259	-0.057831	-0.007629	0.00885	-0.31479	-0.025024	-0.043182	-0.10834	-0.057068	-0.011139	0.039825	0.070038	-0.020447	-0.46768	-0.006256	0.55771	0.067749	-0.002441	-0.007019
26.469	0.017395	0.4628	-0.049744	0.014343	-0.00824	-0.079041	0.041809	-0.002289	0.2507	-0.022583	0.10483	-0.005341	0.085297	0.097198	-0.25299	-0.010071	0.002136	-0.25055	-0.29312	-0.026093	-0.072327	0.019989	-0.024414	0.016632	0.072021	-0.018005	-0.31433	-0.009308	0.49011	0.088348	-0.001678	-0.01236
26.47	0.01709	0.4393	-0.053253	0.012512	-0.01297	-0.077972	0.032349	-0.000458	0.23102	-0.027466	-0.15823	-0.007172	0.084839	0.006256	-0.40695	0.020447	-0.000305	-0.26688	-0.3952	-0.045471	0.09903	0.072174	0.016022	0.023804	0.10529	-0.010223	-0.30395	-0.003815	0.11948	-0.012817	0.000305	-0.0177
26.471	0.014496	0.43625	-0.05127	0.008698	-0.003967	-0.067444	0.012817	-0.002747	0.224	-0.004578	-0.23239	-0.006561	0.055847	0.038452	-0.33478	0.061798	-0.002747	-0.35889	-0.33936	-0.097046	0.072937	0.035248	0.083008	0.04837	0.08667	-0.013123	-0.063019	-0.008392	-0.006561	-0.0383	0.007324	-0.003357
26.472	0.022888	0.37064	-0.050354	0.010529	-0.000305	-0.088196	0.023804	-0.006104	0.21515	0.004883	-0.18341	-0.001831	0.029907	0.11688	-0.23789	-0.09491	-0.014496	-0.3302	-0.42572	-0.057068	-0.10803	0.072632	0.15823	0.060883	0.061493	-0.05188	-0.019073	-0.007172	0.073853	0.019379	0.001068	-0.014343
26.473	0.02243	0.40649	-0.062256	0.01297	-0.011139	-0.084229	0.015564	-0.006714	0.20554	-0.03891	-0.072174	-0.001526	0.001526	0.064545	-0.045929	-0.068512	0.006104	-0.32883	-0.042877	0.077209	-0.047455	0.068512	0.27527	0.001831	0.036469	-0.062561	0.021973	-0.003815	0.00061	0.05249	0.007782	-0.003815
26.474	0.020905	0.38696	-0.037537	0.005188	-0.009766	-0.074768	0.018768	-0.003357	0.18951	-0.083771	0.013123	-0.001068	0.036469	-0.014038	0.2626	0.04776	-0.014343	-0.32288	0.24674	0.2594	0.0914	0.069275	0.36148	0.056458	0.035553	-0.08667	0.088501	-0.00061	-0.010071	0.10971	0.000763	-0.014038
26.475	0.020294	0.37521	-0.030212	0.014191	0.00061	-0.074615	0.015717	-0.004883	0.18768	-0.061646	0.046539	-0.001678	0.052795	0.034637	-0.10162	-0.26108	-0.03479	-0.33752	0.37781	0.14984	0.16556	-0.043793	0.39215	0.087433	0.030365	-0.072784	0.081482	-0.000763	-0.28473	-0.00351	0.001221	-0.016632
26.476	0.016174	0.345	-0.066071	0.013733	-0.007935	-0.065155	0.007019	-0.004425	0.19028	-0.019531	0.12497	0.000458	0.001984	0.0177	-0.11429	0.08255	-0.027924	-0.36819	0.55801	-0.008392	0.13229	-0.10117	0.22171	0.096741	0.033875	-0.036926	0.089417	-0.012817	-0.086212	-0.39246	-0.002899	-0.022583
26.477	0.01236	0.35492	-0.075073	0.002289	-0.007477	-0.08255	0.019379	-0.002899	0.18677	-0.020752	0.13825	0.00061	-0.012207	-0.072021	0.026398	0.42328	-0.014648	-0.32074	0.46219	-0.040283	0.11063	-0.053101	0.019073	0.097351	0.030212	0.088654	0.12146	-0.005493	0.022583	-0.11154	-0.005341	-0.014954
26.478	0.011292	0.39291	-0.057373	-0.003204	-0.015259	-0.06485	0.002747	-0.000916	0.18265	-0.050507	-0.042114	-0.004883	0.080261	-0.13321	0.18326	-0.5191	-0.021667	-0.34103	-0.10941	0.028687	0.046387	0.003815	0.031586	0.11704	0.014801	0.055695	0.10925	-0.002594	0.022583	0.21744	-0.001526	-0.013885
26.479	0.005035	0.36438	-0.055847	-0.00061	-0.028839	-0.060577	-0.016022	0.002747	0.17761	-0.037537	-0.024414	-0.001526	0.1152	-0.11871	0.050201	0.56198	-0.025024	-0.34744	-0.35294	0.016022	0.015411	0.049591	0.1091	0.088959	0.065155	-0.002747	0.10864	0.005646	0.08728	0.09903	-0.001068	-0.016327
